<svg version="1.1" id="Layer_1" xmlns="http://www.w3.org/2000/svg" xmlns:xlink="http://www.w3.org/1999/xlink" x="0px" y="0px"
	 width="100%" viewBox="0 0 720 560" enable-background="new 0 0 720 560" xml:space="preserve">
<path fill="#B8935A" opacity="1.000000" stroke="none" 
	d="
M114.330482,289.000122 
	C114.326408,315.659424 114.210838,341.819580 114.416054,367.977234 
	C114.454597,372.889679 112.820908,374.510010 108.073235,374.133362 
	C103.767502,373.791748 99.414764,374.001007 95.083260,374.034241 
	C84.690399,374.113922 85.755241,374.699402 85.734612,364.538849 
	C85.669655,332.548340 85.712875,300.557556 85.709038,268.566895 
	C85.701866,208.750809 85.687637,148.934723 85.686005,89.118637 
	C85.685799,81.527161 85.731346,81.873650 93.467735,81.456245 
	C107.789360,80.683556 122.114670,81.395454 136.424973,80.897324 
	C140.874847,80.742416 143.382019,82.372459 145.390564,86.338257 
	C153.881119,103.102478 162.391342,119.867332 171.392395,136.360153 
	C189.403198,169.361740 206.440430,202.870941 223.926208,236.145844 
	C229.489532,246.732697 234.803360,257.450592 240.246445,268.100769 
	C241.066254,269.704834 241.686691,271.491028 243.420120,272.312134 
	C245.316025,272.028442 245.886826,270.551331 246.610870,269.270782 
	C264.061981,238.406677 281.446045,207.504562 298.964386,176.678696 
	C314.258545,149.766602 329.717957,122.948456 345.060455,96.063751 
	C347.118805,92.456871 349.074371,88.773376 350.791443,84.995338 
	C352.164062,81.975197 354.296814,80.909943 357.487549,80.927025 
	C370.149872,80.994850 382.813080,80.960350 395.475647,80.900200 
	C399.400543,80.881561 401.224823,82.552658 401.221527,86.612602 
	C401.194672,119.769241 401.221222,152.926056 401.333130,186.082489 
	C401.345581,189.774094 399.792145,191.180908 396.275085,191.171310 
	C382.612885,191.134064 368.950073,191.113983 355.288452,191.215256 
	C351.374298,191.244263 350.606598,189.159119 350.627106,185.823181 
	C350.711060,172.161255 350.672821,158.498520 350.655640,144.836121 
	C350.653625,143.244736 351.008789,141.564209 350.094116,140.062073 
	C348.142090,140.529526 347.652039,142.038467 346.945007,143.300430 
	C327.257690,178.438934 307.690063,213.645050 287.868835,248.707779 
	C274.436951,272.468048 260.652069,296.028778 247.022400,319.677216 
	C246.440353,320.687134 245.590546,321.610870 245.272720,322.694244 
	C242.458771,332.286346 235.758224,334.576508 226.570618,333.525299 
	C222.915390,333.107086 220.843994,331.859741 219.218719,328.752533 
	C210.500061,312.084320 201.692627,295.462311 192.865173,278.851257 
	C175.914429,246.954193 158.930481,215.074768 141.958649,183.188904 
	C133.982086,168.202866 126.009186,153.214844 118.008011,138.241943 
	C117.406013,137.115417 117.092346,135.696854 114.330002,134.810852 
	C114.330002,186.326828 114.330002,237.413467 114.330482,289.000122 
z"/>
<path fill="#B8935A" opacity="1.000000" stroke="none" 
	d="
M600.188721,405.436371 
	C608.024292,370.780365 605.898743,336.887817 595.604431,303.532471 
	C587.296204,276.612335 572.532349,253.984482 547.853088,239.266022 
	C529.445312,228.287781 509.416565,221.627823 487.747040,221.426086 
	C460.923737,221.176361 434.096222,221.413788 407.271454,221.267929 
	C402.833557,221.243805 401.081390,222.554871 401.124084,227.255707 
	C401.432678,261.240662 401.503693,295.227753 401.700226,329.213837 
	C401.717224,332.154358 401.071869,334.437317 397.977448,335.478363 
	C381.224243,341.114349 366.852173,350.452545 354.767059,363.340118 
	C354.081329,364.071442 353.231476,364.637146 352.001495,364.245270 
	C350.405457,362.903412 350.861969,360.939026 350.859467,359.189911 
	C350.786163,307.871033 350.784302,256.552002 350.652924,205.233337 
	C350.642487,201.154053 351.974518,199.678101 356.137207,199.689102 
	C401.623779,199.809341 447.122437,199.152405 492.593933,199.995926 
	C530.990356,200.708191 567.048218,210.514313 598.410034,233.788055 
	C619.496338,249.436295 634.414612,269.992645 644.394592,294.203949 
	C659.507812,330.868469 661.392944,368.934845 652.861694,406.969391 
	C640.968567,459.991730 609.192261,496.712891 557.482910,515.559082 
	C532.694031,524.593750 507.163818,527.665588 481.006287,527.509094 
	C468.048035,527.431580 455.083069,527.686584 442.129364,528.069702 
	C437.590942,528.203979 435.320740,526.498230 434.658142,522.069336 
	C434.067902,518.124329 433.215088,514.215088 432.381317,510.310791 
	C431.253937,505.031586 431.913422,504.034790 437.342102,504.068268 
	C453.324768,504.166809 469.303131,504.341736 485.285645,503.792999 
	C501.123718,503.249237 516.344055,499.767609 530.905151,493.827087 
	C555.012268,483.992035 573.572083,467.612152 586.002625,444.637512 
	C592.606323,432.432404 597.290222,419.454376 600.188721,405.436371 
z"/>
<path fill="#B8935A" opacity="1.000000" stroke="none" 
	d="
M464.851013,272.000000 
	C464.842072,259.677002 464.969818,247.851562 464.756653,236.032272 
	C464.678101,231.676147 466.376587,230.000580 470.593201,230.095551 
	C478.067993,230.263901 485.547485,230.306152 493.024231,230.263382 
	C495.971405,230.246521 497.203217,231.383362 497.195648,234.391693 
	C497.122375,263.531952 498.590118,292.766815 496.721558,321.788177 
	C494.528625,355.848358 481.244690,386.201874 458.647491,412.198730 
	C445.574097,427.238953 430.538788,440.048004 414.548737,451.812317 
	C413.264099,452.757446 412.110687,454.194031 410.151489,453.776642 
	C408.458405,452.655731 408.792084,450.868073 408.793060,449.260010 
	C408.799530,438.436279 408.936798,427.611877 408.848999,416.789185 
	C408.824432,413.763550 410.285187,411.865845 412.323792,409.991180 
	C428.961639,394.691223 443.717743,377.956909 453.268860,357.125610 
	C460.078766,342.272980 464.254364,326.797516 464.692688,310.465027 
	C465.032104,297.817719 464.819611,285.155548 464.851013,272.000000 
z"/>
<path fill="#B8935A" opacity="1.000000" stroke="none" 
	d="
M400.401550,413.573181 
	C400.376862,435.831512 400.391113,457.643463 400.302094,479.455017 
	C400.288635,482.749725 400.529327,485.716370 403.440308,487.906372 
	C404.321716,488.569458 404.933685,489.689606 405.460663,490.708191 
	C408.055115,495.723450 407.127991,497.220337 401.451263,497.207001 
	C383.470642,497.164795 365.490021,497.107544 347.509460,497.043671 
	C340.969360,497.020447 338.969635,494.314911 342.965576,489.434326 
	C347.183411,484.282806 346.879395,478.854645 346.879791,473.127289 
	C346.881287,451.980865 346.642029,430.831360 346.925751,409.688812 
	C347.314392,380.727570 365.593719,355.629608 392.338104,346.669922 
	C399.734314,344.192139 400.427612,344.568207 400.448792,352.200104 
	C400.505127,372.508789 400.429840,392.817810 400.401550,413.573181 
M387.971100,422.500000 
	C387.958710,406.353485 387.969727,390.206909 387.904510,374.060608 
	C387.896332,372.030029 388.465118,369.246460 385.128693,369.263885 
	C382.376312,369.278259 380.321625,370.586823 380.149689,373.720215 
	C380.076813,375.048615 380.016541,376.379822 380.016235,377.709747 
	C380.012573,393.023743 380.023712,408.337738 380.026581,423.651733 
	C380.030151,442.627899 380.088409,461.604431 379.980469,480.579987 
	C379.959351,484.295776 380.904175,486.407745 385.061737,485.795227 
	C388.460907,485.294464 387.999115,482.705078 388.000122,480.429596 
	C388.008575,461.453064 387.984833,442.476532 387.971100,422.500000 
M359.201080,423.500519 
	C359.202332,429.994934 359.196930,436.489319 359.206238,442.983734 
	C359.224579,455.805542 359.239502,468.627380 359.288757,481.449097 
	C359.294952,483.058929 358.936523,484.982727 361.083771,485.622711 
	C362.699158,486.104156 364.467987,486.227325 365.941620,485.313385 
	C367.956909,484.063477 367.644806,481.870911 367.646118,479.892365 
	C367.665283,450.918671 367.684723,421.944977 367.652496,392.971313 
	C367.650635,391.292603 368.259064,389.256927 365.847534,388.011322 
	C364.113525,389.684082 363.507141,391.950775 362.548981,394.013977 
	C358.308044,403.146210 359.332092,412.889648 359.201080,423.500519 
z"/>
<path fill="#B8935A" opacity="1.000000" stroke="none" 
	d="
M320.227356,402.761902 
	C325.025726,407.901733 329.912994,412.401184 335.445129,416.157898 
	C336.756989,417.048737 337.865875,418.152222 337.873993,419.735901 
	C337.935822,431.831726 337.907898,443.928070 337.907898,455.805115 
	C336.251526,456.728851 335.361328,455.940735 334.376587,455.284149 
	C304.056610,435.068054 277.915588,410.879333 261.051636,377.927856 
	C255.045227,366.191559 250.339493,353.968201 247.710266,340.983307 
	C246.973877,337.346527 247.502228,334.164459 249.249191,330.937988 
	C255.506378,319.381561 261.589203,307.730530 267.877167,296.191101 
	C268.991669,294.145813 269.868561,291.592438 274.079620,290.466187 
	C270.924042,335.664001 288.666168,371.961945 320.227356,402.761902 
z"/>
<path fill="#B8935A" opacity="1.000000" stroke="none" 
	d="
M242.688049,162.054825 
	C242.599731,158.237152 242.648438,154.898834 242.382324,151.585785 
	C242.133728,148.490768 243.111038,146.935287 246.431046,146.785416 
	C268.638184,145.782944 289.671326,139.852661 310.096558,131.424683 
	C311.429657,130.874603 312.724945,129.839676 314.567139,130.971207 
	C315.293243,133.307968 313.874115,135.335617 312.822083,137.257843 
	C307.308441,147.332581 301.640533,157.322800 296.046112,167.353485 
	C292.912628,172.971771 286.880066,172.942642 281.781769,174.413803 
	C275.005951,176.369034 274.985382,176.069290 275.002167,183.374268 
	C275.017487,190.026398 274.844238,196.678757 274.807526,203.331329 
	C274.796967,205.247253 274.115448,206.924927 273.214020,208.520782 
	C264.537170,223.882080 255.855423,239.240799 247.102112,254.558533 
	C246.331650,255.906754 245.805237,257.709290 242.687683,258.163300 
	C242.687683,226.164352 242.687683,194.354782 242.688049,162.054825 
z"/>
<path fill="#B8935A" opacity="1.000000" stroke="none" 
	d="
M494.490234,190.894348 
	C486.050323,191.055527 478.055939,190.997101 470.068420,191.202850 
	C465.882507,191.310684 464.534393,189.420776 464.582855,185.463104 
	C464.705872,175.420288 466.342529,176.773407 455.675720,174.494019 
	C443.134399,171.814026 430.785858,168.615234 419.076324,163.131561 
	C412.666504,160.129791 408.964539,156.239288 409.650574,148.600266 
	C410.221680,142.240860 409.767578,135.789368 409.767578,128.598648 
	C417.626190,131.497437 424.389648,134.093216 431.221863,136.493301 
	C450.662903,143.322723 470.636597,147.458649 491.297241,147.549530 
	C495.994720,147.570206 497.315094,149.355392 497.225464,153.786133 
	C497.013306,164.273788 497.211426,174.769379 497.200775,185.261734 
	C497.198608,187.372574 497.615631,189.734314 494.490234,190.894348 
z"/>
<path fill="#B8935A" opacity="1.000000" stroke="none" 
	d="
M362.000122,516.727295 
	C381.309753,516.725525 400.119934,516.798035 418.928589,516.663269 
	C423.080536,516.633545 425.006714,518.072327 425.272980,522.333984 
	C425.526794,526.396973 424.176361,528.109070 419.983185,528.096008 
	C389.194305,528.000488 358.404999,528.014709 327.615845,528.026855 
	C324.267395,528.028198 321.620605,527.547974 321.828003,523.206543 
	C322.023132,519.121155 323.340088,516.651672 328.042572,516.715820 
	C339.193054,516.868164 350.347351,516.741150 362.000122,516.727295 
z"/>
<path fill="#B8935A" opacity="1.000000" stroke="none" 
	d="
M338.587769,501.804016 
	C360.801270,501.650513 382.577148,501.576355 404.352478,501.425293 
	C409.310486,501.390900 413.538940,502.256958 415.753387,507.485352 
	C417.079559,510.616577 416.739258,512.251892 412.991241,512.246216 
	C405.510376,512.234924 398.029419,512.283325 390.548523,512.284973 
	C373.424500,512.288757 356.300079,512.331909 339.176849,512.212585 
	C336.878632,512.196533 333.278870,513.602478 332.545685,510.680908 
	C331.733002,507.442780 333.609497,504.246552 336.740082,502.323090 
	C337.150757,502.070740 337.677155,502.006714 338.587769,501.804016 
z"/>
</svg>